<svg xmlns="http://www.w3.org/2000/svg" width="141.779" height="134.122" viewBox="0 0 141.779 134.122">
  <title>Metamodernist_V2</title>
  <g>
    <rect width="1.492" height="134.122" fill="#231f20"/>
    <rect x="2.985" width="1.493" height="134.122" fill="#231f20"/>
    <rect x="7.462" y="15.341" width="1.493" height="103.338" fill="#231f20"/>
    <rect x="11.939" y="15.341" width="2.985" height="103.338" fill="#231f20"/>
    <rect x="16.416" y="15.341" width="1.493" height="103.338" fill="#231f20"/>
    <rect x="20.894" y="15.341" width="4.477" height="103.338" fill="#231f20"/>
    <rect x="26.863" y="15.341" width="5.97" height="103.338" fill="#231f20"/>
    <rect x="34.325" y="15.341" width="1.492" height="103.338" fill="#231f20"/>
    <rect x="37.31" y="15.341" width="1.492" height="103.338" fill="#231f20"/>
    <rect x="43.28" y="15.341" width="2.985" height="103.338" fill="#231f20"/>
    <rect x="47.757" y="15.341" width="4.477" height="103.338" fill="#231f20"/>
    <rect x="55.219" y="15.341" width="1.492" height="103.338" fill="#231f20"/>
    <rect x="58.204" y="15.341" width="1.492" height="103.338" fill="#231f20"/>
    <rect x="65.666" y="15.341" width="1.492" height="103.338" fill="#231f20"/>
    <rect x="68.651" width="1.492" height="134.122" fill="#231f20"/>
    <rect x="71.636" width="1.492" height="134.122" fill="#231f20"/>
    <rect x="74.621" y="15.341" width="1.493" height="103.338" fill="#231f20"/>
    <rect x="77.606" y="15.341" width="1.492" height="103.338" fill="#231f20"/>
    <rect x="85.068" y="15.341" width="1.493" height="103.338" fill="#231f20"/>
    <rect x="91.037" y="15.341" width="1.492" height="103.338" fill="#231f20"/>
    <rect x="95.515" y="15.341" width="1.492" height="103.338" fill="#231f20"/>
    <rect x="99.992" y="15.341" width="4.477" height="103.338" fill="#231f20"/>
    <rect x="105.961" y="15.341" width="1.492" height="103.338" fill="#231f20"/>
    <rect x="110.439" y="15.341" width="1.492" height="103.338" fill="#231f20"/>
    <rect x="116.408" y="15.341" width="1.492" height="103.338" fill="#231f20"/>
    <rect x="122.378" y="15.341" width="1.492" height="103.338" fill="#231f20"/>
    <rect x="126.855" y="15.341" width="4.477" height="103.338" fill="#231f20"/>
    <rect x="134.317" y="15.341" width="1.493" height="103.338" fill="#231f20"/>
    <rect x="137.302" width="1.492" height="134.122" fill="#231f20"/>
    <rect x="140.287" width="1.492" height="134.122" fill="#231f20"/>
  </g>
</svg>
