<svg xmlns="http://www.w3.org/2000/svg" width="173.709" height="173.709" viewBox="0 0 173.709 173.709">
  <title>Metamodernist_V2</title>
  <g>
    <path d="M86.854,173.709a86.855,86.855,0,1,1,86.855-86.855A86.953,86.953,0,0,1,86.854,173.709ZM86.854.75a86.1,86.1,0,1,0,86.105,86.1A86.2,86.2,0,0,0,86.854.75Z"/>
    <path d="M86.854,164.587C38.963,164.587,0,129.716,0,86.854S38.963,9.122,86.854,9.122s86.855,34.871,86.855,77.732S134.746,164.587,86.854,164.587Zm0-154.715C39.376,9.872.75,44.406.75,86.854s38.626,76.983,86.1,76.983,86.105-34.534,86.105-76.983S134.333,9.872,86.854,9.872Z"/>
    <path d="M86.854,155.465C38.963,155.465,0,124.686,0,86.854S38.963,18.245,86.854,18.245s86.855,30.778,86.855,68.609S134.746,155.465,86.854,155.465Zm0-136.47C39.376,19,.75,49.436.75,86.854s38.626,67.861,86.1,67.861,86.105-30.442,86.105-67.861S134.333,19,86.854,19Z"/>
    <path d="M86.854,146.343C38.963,146.343,0,119.656,0,86.854S38.963,27.367,86.854,27.367s86.855,26.686,86.855,59.487S134.746,146.343,86.854,146.343Zm0-118.226C39.376,28.117.75,54.466.75,86.854s38.626,58.739,86.1,58.739,86.105-26.35,86.105-58.739S134.333,28.117,86.854,28.117Z"/>
    <path d="M86.854,137.221C38.963,137.221,0,114.626,0,86.854S38.963,36.489,86.854,36.489s86.855,22.593,86.855,50.365S134.746,137.221,86.854,137.221Zm0-99.982C39.376,37.239.75,59.5.75,86.854s38.626,49.617,86.1,49.617,86.105-22.258,86.105-49.617S134.333,37.239,86.854,37.239Z"/>
    <path d="M86.854,128.1C38.963,128.1,0,109.6,0,86.854S38.963,45.611,86.854,45.611s86.855,18.5,86.855,41.243S134.746,128.1,86.854,128.1Zm0-81.738C39.376,46.361.75,64.526.75,86.854s38.626,40.5,86.1,40.5,86.105-18.166,86.105-40.5S134.333,46.361,86.854,46.361Z"/>
    <path d="M86.854,118.976C38.963,118.976,0,104.566,0,86.854S38.963,54.733,86.854,54.733s86.855,14.41,86.855,32.121S134.746,118.976,86.854,118.976Zm0-63.493C39.376,55.483.75,69.557.75,86.854s38.626,31.372,86.1,31.372,86.105-14.073,86.105-31.372S134.333,55.483,86.854,55.483Z"/>
    <path d="M86.854,109.854C38.963,109.854,0,99.537,0,86.854s38.963-23,86.854-23,86.855,10.318,86.855,23S134.746,109.854,86.854,109.854Zm0-45.249c-47.478,0-86.1,9.981-86.1,22.249s38.626,22.25,86.1,22.25,86.105-9.981,86.105-22.25S134.333,64.605,86.854,64.605Z"/>
    <path d="M86.854,100.732C38.151,100.732,0,94.636,0,86.854S38.151,72.977,86.854,72.977s86.855,6.1,86.855,13.877S135.558,100.732,86.854,100.732Zm0-27C45.272,73.727.75,79,.75,86.854s44.522,13.128,86.1,13.128,86.105-5.275,86.105-13.128S128.438,73.727,86.854,73.727Z"/>
    <path d="M86.854,91.61c-23.106,0-44.83-.456-61.169-1.283C0,89.025,0,87.5,0,86.854s0-2.17,25.685-3.471c16.34-.828,38.064-1.283,61.169-1.283s44.83.455,61.169,1.283c25.686,1.3,25.686,2.822,25.686,3.471s0,2.171-25.686,3.473C131.684,91.154,109.96,91.61,86.854,91.61ZM.783,86.854c1.888,1.946,36.6,4.006,86.071,4.006s84.184-2.06,86.072-4.006c-1.888-1.945-36.6-4-86.072-4S2.671,84.909.783,86.854Z"/>
    <path d="M86.854,100.732c-43.587,0-77.732-6.1-77.732-13.878S43.267,72.977,86.854,72.977s77.733,6.1,77.733,13.877S130.442,100.732,86.854,100.732Zm0-27c-41.728,0-76.982,6.012-76.982,13.127S45.126,99.982,86.854,99.982s76.983-6.012,76.983-13.128S128.583,73.727,86.854,73.727Z"/>
    <path d="M86.854,109.854c-37.832,0-68.61-10.317-68.61-23s30.778-23,68.61-23,68.611,10.318,68.611,23S124.686,109.854,86.854,109.854Zm0-45.249c-37.418,0-67.86,9.981-67.86,22.249s30.442,22.25,67.86,22.25,67.861-9.981,67.861-22.25S124.272,64.605,86.854,64.605Z"/>
    <path d="M86.854,118.976c-32.8,0-59.488-14.41-59.488-32.122S54.053,54.733,86.854,54.733s59.488,14.41,59.488,32.121S119.656,118.976,86.854,118.976Zm0-63.493c-32.388,0-58.738,14.074-58.738,31.371s26.35,31.372,58.738,31.372,58.738-14.073,58.738-31.372S119.242,55.483,86.854,55.483Z"/>
    <path d="M86.854,128.1c-27.772,0-50.366-18.5-50.366-41.245S59.082,45.611,86.854,45.611s50.366,18.5,50.366,41.243S114.626,128.1,86.854,128.1Zm0-81.738c-27.358,0-49.616,18.165-49.616,40.493s22.258,40.5,49.616,40.5,49.616-18.166,49.616-40.5S114.213,46.361,86.854,46.361Z"/>
    <path d="M86.854,137.221c-22.742,0-41.244-22.595-41.244-50.367s18.5-50.365,41.244-50.365S128.1,59.082,128.1,86.854,109.6,137.221,86.854,137.221Zm0-99.982C64.526,37.239,46.36,59.5,46.36,86.854s18.166,49.617,40.494,49.617,40.494-22.258,40.494-49.617S109.183,37.239,86.854,37.239Z"/>
    <path d="M86.854,146.343c-17.711,0-32.122-26.687-32.122-59.489S69.143,27.367,86.854,27.367s32.122,26.686,32.122,59.487S104.566,146.343,86.854,146.343Zm0-118.226c-17.3,0-31.372,26.349-31.372,58.737s14.074,58.739,31.372,58.739,31.372-26.35,31.372-58.739S104.152,28.117,86.854,28.117Z"/>
    <path d="M86.854,155.465c-12.682,0-23-30.779-23-68.611s10.318-68.609,23-68.609,23,30.778,23,68.609S99.536,155.465,86.854,155.465Zm0-136.47C74.586,19,64.6,49.436,64.6,86.854s9.982,67.861,22.25,67.861,22.25-30.442,22.25-67.861S99.123,19,86.854,19Z"/>
    <path d="M86.854,164.587c-7.781,0-13.876-34.144-13.876-77.733S79.073,9.122,86.854,9.122s13.877,34.144,13.877,77.732S94.636,164.587,86.854,164.587Zm0-154.715c-7.115,0-13.126,35.253-13.126,76.982s6.011,76.983,13.126,76.983,13.127-35.254,13.127-76.983S93.97,9.872,86.854,9.872Z"/>
    <path d="M86.854,173.709c-.649,0-2.17,0-3.471-25.685-.827-16.34-1.283-38.064-1.283-61.17s.456-44.829,1.283-61.169C84.684,0,86.205,0,86.854,0s2.171,0,3.472,25.685c.827,16.34,1.283,38.064,1.283,61.169s-.456,44.83-1.283,61.17C89.025,173.709,87.5,173.709,86.854,173.709Zm0-172.926c-1.945,1.888-4,36.6-4,86.071s2.059,84.184,4,86.072c1.946-1.888,4-36.6,4-86.072S88.8,2.671,86.854.783Z"/>
  </g>
</svg>
